<?xml version="1.0" encoding="UTF-8" standalone="no"?><svg xmlns="http://www.w3.org/2000/svg" xmlns:xlink="http://www.w3.org/1999/xlink" contentScriptType="application/ecmascript" contentStyleType="text/css" height="460px" preserveAspectRatio="none" style="width:3649px;height:460px;" version="1.1" viewBox="0 0 3649 460" width="3649.6001px" zoomAndPan="magnify"><defs><filter height="300%" id="fq4k9v9ptdgg0" width="300%" x="-1" y="-1"><feGaussianBlur result="blurOut" stdDeviation="1.600000023841858"/><feColorMatrix in="blurOut" result="blurOut2" type="matrix" values="0 0 0 0 0 0 0 0 0 0 0 0 0 0 0 0 0 0 .4 0"/><feOffset dx="3.200000047683716" dy="3.200000047683716" in="blurOut2" result="blurOut3"/><feBlend in="SourceGraphic" in2="blurOut3" mode="normal"/></filter></defs><g><!--class node--><rect fill="#FEFECE" filter="url(#fq4k9v9ptdgg0)" height="38.4" id="node" style="stroke: #A80036; stroke-width: 1.2000000178813934;" width="49.6" x="2378.8" y="6.4"/><ellipse cx="2390.8" cy="19.2" fill="#B4A7E5" rx="8.8" ry="8.8" style="stroke: #A80036; stroke-width: 0.800000011920929;"/><path d="M2387.9375,16 L2387.9375,14.4 L2393.85,14.4 L2393.85,16 L2391.875,16 L2391.875,22.4 L2393.85,22.4 L2393.85,24 L2387.9375,24 L2387.9375,22.4 L2389.9125,22.4 L2389.9125,16 L2387.9375,16 Z "/><text fill="#000000" font-family="sans-serif" font-size="9.6" font-style="italic" lengthAdjust="spacingAndGlyphs" textLength="24" x="2402" y="22.5234">node</text><line style="stroke: #A80036; stroke-width: 1.2000000178813934;" x1="2379.6" x2="2427.6" y1="32" y2="32"/><line style="stroke: #A80036; stroke-width: 1.2000000178813934;" x1="2379.6" x2="2427.6" y1="38.4" y2="38.4"/><!--class expression--><rect fill="#FEFECE" filter="url(#fq4k9v9ptdgg0)" height="38.4" id="expression" style="stroke: #A80036; stroke-width: 1.2000000178813934;" width="76.8" x="1781.2" y="92.8"/><ellipse cx="1793.2" cy="105.6" fill="#B4A7E5" rx="8.8" ry="8.8" style="stroke: #A80036; stroke-width: 0.800000011920929;"/><path d="M1790.3375,102.4 L1790.3375,100.8 L1796.25,100.8 L1796.25,102.4 L1794.275,102.4 L1794.275,108.8 L1796.25,108.8 L1796.25,110.4 L1790.3375,110.4 L1790.3375,108.8 L1792.3125,108.8 L1792.3125,102.4 L1790.3375,102.4 Z "/><text fill="#000000" font-family="sans-serif" font-size="9.6" font-style="italic" lengthAdjust="spacingAndGlyphs" textLength="51.2" x="1804.4" y="108.9234">expression</text><line style="stroke: #A80036; stroke-width: 1.2000000178813934;" x1="1782" x2="1857.2" y1="118.4" y2="118.4"/><line style="stroke: #A80036; stroke-width: 1.2000000178813934;" x1="1782" x2="1857.2" y1="124.8" y2="124.8"/><!--class binaryExpression--><rect fill="#FEFECE" filter="url(#fq4k9v9ptdgg0)" height="69.1313" id="binaryExpression" style="stroke: #A80036; stroke-width: 1.2000000178813934;" width="108" x="587.2" y="179.2"/><ellipse cx="599.2" cy="192" fill="#B4A7E5" rx="8.8" ry="8.8" style="stroke: #A80036; stroke-width: 0.800000011920929;"/><path d="M596.3375,188.8 L596.3375,187.2 L602.25,187.2 L602.25,188.8 L600.275,188.8 L600.275,195.2 L602.25,195.2 L602.25,196.8 L596.3375,196.8 L596.3375,195.2 L598.3125,195.2 L598.3125,188.8 L596.3375,188.8 Z "/><text fill="#000000" font-family="sans-serif" font-size="9.6" font-style="italic" lengthAdjust="spacingAndGlyphs" textLength="82.4" x="610.4" y="195.3234">binaryExpression</text><line style="stroke: #A80036; stroke-width: 1.2000000178813934;" x1="588" x2="694.4" y1="204.8" y2="204.8"/><text fill="#000000" font-family="sans-serif" font-size="8.8" lengthAdjust="spacingAndGlyphs" textLength="67.2" x="592" y="216.1684">expression left</text><text fill="#000000" font-family="sans-serif" font-size="8.8" lengthAdjust="spacingAndGlyphs" textLength="73.6" x="592" y="226.4121">expression right</text><text fill="#000000" font-family="sans-serif" font-size="8.8" lengthAdjust="spacingAndGlyphs" textLength="68.8" x="592" y="236.6559">String operator</text><line style="stroke: #A80036; stroke-width: 1.2000000178813934;" x1="588" x2="694.4" y1="241.9313" y2="241.9313"/><!--class unaryExpression--><rect fill="#FEFECE" filter="url(#fq4k9v9ptdgg0)" height="38.4" id="unaryExpression" style="stroke: #A80036; stroke-width: 1.2000000178813934;" width="105.6" x="1538" y="194.4"/><ellipse cx="1550" cy="207.2" fill="#B4A7E5" rx="8.8" ry="8.8" style="stroke: #A80036; stroke-width: 0.800000011920929;"/><path d="M1547.1375,204 L1547.1375,202.4 L1553.05,202.4 L1553.05,204 L1551.075,204 L1551.075,210.4 L1553.05,210.4 L1553.05,212 L1547.1375,212 L1547.1375,210.4 L1549.1125,210.4 L1549.1125,204 L1547.1375,204 Z "/><text fill="#000000" font-family="sans-serif" font-size="9.6" font-style="italic" lengthAdjust="spacingAndGlyphs" textLength="80" x="1561.2" y="210.5234">unaryExpression</text><line style="stroke: #A80036; stroke-width: 1.2000000178813934;" x1="1538.8" x2="1642.8" y1="220" y2="220"/><line style="stroke: #A80036; stroke-width: 1.2000000178813934;" x1="1538.8" x2="1642.8" y1="226.4" y2="226.4"/><!--class arithmeticBinaryExpression--><rect fill="#FEFECE" filter="url(#fq4k9v9ptdgg0)" height="38.4" id="arithmeticBinaryExpression" style="stroke: #A80036; stroke-width: 1.2000000178813934;" width="157.6" x="141.6" y="311.2"/><ellipse cx="153.6" cy="324" fill="#B4A7E5" rx="8.8" ry="8.8" style="stroke: #A80036; stroke-width: 0.800000011920929;"/><path d="M150.7375,320.8 L150.7375,319.2 L156.65,319.2 L156.65,320.8 L154.675,320.8 L154.675,327.2 L156.65,327.2 L156.65,328.8 L150.7375,328.8 L150.7375,327.2 L152.7125,327.2 L152.7125,320.8 L150.7375,320.8 Z "/><text fill="#000000" font-family="sans-serif" font-size="9.6" font-style="italic" lengthAdjust="spacingAndGlyphs" textLength="132" x="164.8" y="327.3234">arithmeticBinaryExpression</text><line style="stroke: #A80036; stroke-width: 1.2000000178813934;" x1="142.4" x2="298.4" y1="336.8" y2="336.8"/><line style="stroke: #A80036; stroke-width: 1.2000000178813934;" x1="142.4" x2="298.4" y1="343.2" y2="343.2"/><!--class logicalBinaryExpression--><rect fill="#FEFECE" filter="url(#fq4k9v9ptdgg0)" height="38.4" id="logicalBinaryExpression" style="stroke: #A80036; stroke-width: 1.2000000178813934;" width="138.4" x="489.6" y="311.2"/><ellipse cx="501.6" cy="324" fill="#B4A7E5" rx="8.8" ry="8.8" style="stroke: #A80036; stroke-width: 0.800000011920929;"/><path d="M498.7375,320.8 L498.7375,319.2 L504.65,319.2 L504.65,320.8 L502.675,320.8 L502.675,327.2 L504.65,327.2 L504.65,328.8 L498.7375,328.8 L498.7375,327.2 L500.7125,327.2 L500.7125,320.8 L498.7375,320.8 Z "/><text fill="#000000" font-family="sans-serif" font-size="9.6" font-style="italic" lengthAdjust="spacingAndGlyphs" textLength="112.8" x="512.8" y="327.3234">logicalBinaryExpression</text><line style="stroke: #A80036; stroke-width: 1.2000000178813934;" x1="490.4" x2="627.2" y1="336.8" y2="336.8"/><line style="stroke: #A80036; stroke-width: 1.2000000178813934;" x1="490.4" x2="627.2" y1="343.2" y2="343.2"/><!--class prefixExpression--><rect fill="#FEFECE" filter="url(#fq4k9v9ptdgg0)" height="38.4" id="prefixExpression" style="stroke: #A80036; stroke-width: 1.2000000178813934;" width="104.8" x="1216" y="311.2"/><ellipse cx="1228" cy="324" fill="#B4A7E5" rx="8.8" ry="8.8" style="stroke: #A80036; stroke-width: 0.800000011920929;"/><path d="M1225.1375,320.8 L1225.1375,319.2 L1231.05,319.2 L1231.05,320.8 L1229.075,320.8 L1229.075,327.2 L1231.05,327.2 L1231.05,328.8 L1225.1375,328.8 L1225.1375,327.2 L1227.1125,327.2 L1227.1125,320.8 L1225.1375,320.8 Z "/><text fill="#000000" font-family="sans-serif" font-size="9.6" font-style="italic" lengthAdjust="spacingAndGlyphs" textLength="79.2" x="1239.2" y="327.3234">prefixExpression</text><line style="stroke: #A80036; stroke-width: 1.2000000178813934;" x1="1216.8" x2="1320" y1="336.8" y2="336.8"/><line style="stroke: #A80036; stroke-width: 1.2000000178813934;" x1="1216.8" x2="1320" y1="343.2" y2="343.2"/><!--class postfixExpression--><rect fill="#FEFECE" filter="url(#fq4k9v9ptdgg0)" height="38.4" id="postfixExpression" style="stroke: #A80036; stroke-width: 1.2000000178813934;" width="109.6" x="1536" y="311.2"/><ellipse cx="1548" cy="324" fill="#B4A7E5" rx="8.8" ry="8.8" style="stroke: #A80036; stroke-width: 0.800000011920929;"/><path d="M1545.1375,320.8 L1545.1375,319.2 L1551.05,319.2 L1551.05,320.8 L1549.075,320.8 L1549.075,327.2 L1551.05,327.2 L1551.05,328.8 L1545.1375,328.8 L1545.1375,327.2 L1547.1125,327.2 L1547.1125,320.8 L1545.1375,320.8 Z "/><text fill="#000000" font-family="sans-serif" font-size="9.6" font-style="italic" lengthAdjust="spacingAndGlyphs" textLength="84" x="1559.2" y="327.3234">postfixExpression</text><line style="stroke: #A80036; stroke-width: 1.2000000178813934;" x1="1536.8" x2="1644.8" y1="336.8" y2="336.8"/><line style="stroke: #A80036; stroke-width: 1.2000000178813934;" x1="1536.8" x2="1644.8" y1="343.2" y2="343.2"/><!--class statement--><rect fill="#FEFECE" filter="url(#fq4k9v9ptdgg0)" height="38.4" id="statement" style="stroke: #A80036; stroke-width: 1.2000000178813934;" width="75.2" x="3018.8" y="92.8"/><ellipse cx="3030.8" cy="105.6" fill="#B4A7E5" rx="8.8" ry="8.8" style="stroke: #A80036; stroke-width: 0.800000011920929;"/><path d="M3027.9375,102.4 L3027.9375,100.8 L3033.85,100.8 L3033.85,102.4 L3031.875,102.4 L3031.875,108.8 L3033.85,108.8 L3033.85,110.4 L3027.9375,110.4 L3027.9375,108.8 L3029.9125,108.8 L3029.9125,102.4 L3027.9375,102.4 Z "/><text fill="#000000" font-family="sans-serif" font-size="9.6" font-style="italic" lengthAdjust="spacingAndGlyphs" textLength="49.6" x="3042" y="108.9234">statement</text><line style="stroke: #A80036; stroke-width: 1.2000000178813934;" x1="3019.6" x2="3093.2" y1="118.4" y2="118.4"/><line style="stroke: #A80036; stroke-width: 1.2000000178813934;" x1="3019.6" x2="3093.2" y1="124.8" y2="124.8"/><!--class selectionStatement--><rect fill="#FEFECE" filter="url(#fq4k9v9ptdgg0)" height="38.4" id="selectionStatement" style="stroke: #A80036; stroke-width: 1.2000000178813934;" width="119.2" x="2648.8" y="194.4"/><ellipse cx="2660.8" cy="207.2" fill="#B4A7E5" rx="8.8" ry="8.8" style="stroke: #A80036; stroke-width: 0.800000011920929;"/><path d="M2657.9375,204 L2657.9375,202.4 L2663.85,202.4 L2663.85,204 L2661.875,204 L2661.875,210.4 L2663.85,210.4 L2663.85,212 L2657.9375,212 L2657.9375,210.4 L2659.9125,210.4 L2659.9125,204 L2657.9375,204 Z "/><text fill="#000000" font-family="sans-serif" font-size="9.6" font-style="italic" lengthAdjust="spacingAndGlyphs" textLength="93.6" x="2672" y="210.5234">selectionStatement</text><line style="stroke: #A80036; stroke-width: 1.2000000178813934;" x1="2649.6" x2="2767.2" y1="220" y2="220"/><line style="stroke: #A80036; stroke-width: 1.2000000178813934;" x1="2649.6" x2="2767.2" y1="226.4" y2="226.4"/><!--class literalExpression--><rect fill="#FEFECE" filter="url(#fq4k9v9ptdgg0)" height="48.6438" id="literalExpression" style="stroke: #A80036; stroke-width: 1.2000000178813934;" width="104" x="1767.6" y="189.2"/><ellipse cx="1779.6" cy="202" fill="#B4A7E5" rx="8.8" ry="8.8" style="stroke: #A80036; stroke-width: 0.800000011920929;"/><path d="M1776.7375,198.8 L1776.7375,197.2 L1782.65,197.2 L1782.65,198.8 L1780.675,198.8 L1780.675,205.2 L1782.65,205.2 L1782.65,206.8 L1776.7375,206.8 L1776.7375,205.2 L1778.7125,205.2 L1778.7125,198.8 L1776.7375,198.8 Z "/><text fill="#000000" font-family="sans-serif" font-size="9.6" font-style="italic" lengthAdjust="spacingAndGlyphs" textLength="78.4" x="1790.8" y="205.3234">literalExpression</text><line style="stroke: #A80036; stroke-width: 1.2000000178813934;" x1="1768.4" x2="1870.8" y1="214.8" y2="214.8"/><text fill="#000000" font-family="sans-serif" font-size="8.8" lengthAdjust="spacingAndGlyphs" textLength="56.8" x="1772.4" y="226.1684">Object value</text><line style="stroke: #A80036; stroke-width: 1.2000000178813934;" x1="1768.4" x2="1870.8" y1="231.4438" y2="231.4438"/><!--class jumpStatement--><rect fill="#FEFECE" filter="url(#fq4k9v9ptdgg0)" height="38.4" id="jumpStatement" style="stroke: #A80036; stroke-width: 1.2000000178813934;" width="101.6" x="2868" y="194.4"/><ellipse cx="2880" cy="207.2" fill="#B4A7E5" rx="8.8" ry="8.8" style="stroke: #A80036; stroke-width: 0.800000011920929;"/><path d="M2877.1375,204 L2877.1375,202.4 L2883.05,202.4 L2883.05,204 L2881.075,204 L2881.075,210.4 L2883.05,210.4 L2883.05,212 L2877.1375,212 L2877.1375,210.4 L2879.1125,210.4 L2879.1125,204 L2877.1375,204 Z "/><text fill="#000000" font-family="sans-serif" font-size="9.6" font-style="italic" lengthAdjust="spacingAndGlyphs" textLength="76" x="2891.2" y="210.5234">jumpStatement</text><line style="stroke: #A80036; stroke-width: 1.2000000178813934;" x1="2868.8" x2="2968.8" y1="220" y2="220"/><line style="stroke: #A80036; stroke-width: 1.2000000178813934;" x1="2868.8" x2="2968.8" y1="226.4" y2="226.4"/><!--class iterationStatement--><rect fill="#FEFECE" filter="url(#fq4k9v9ptdgg0)" height="38.4" id="iterationStatement" style="stroke: #A80036; stroke-width: 1.2000000178813934;" width="116.8" x="2998" y="194.4"/><ellipse cx="3010" cy="207.2" fill="#B4A7E5" rx="8.8" ry="8.8" style="stroke: #A80036; stroke-width: 0.800000011920929;"/><path d="M3007.1375,204 L3007.1375,202.4 L3013.05,202.4 L3013.05,204 L3011.075,204 L3011.075,210.4 L3013.05,210.4 L3013.05,212 L3007.1375,212 L3007.1375,210.4 L3009.1125,210.4 L3009.1125,204 L3007.1375,204 Z "/><text fill="#000000" font-family="sans-serif" font-size="9.6" font-style="italic" lengthAdjust="spacingAndGlyphs" textLength="91.2" x="3021.2" y="210.5234">iterationStatement</text><line style="stroke: #A80036; stroke-width: 1.2000000178813934;" x1="2998.8" x2="3114" y1="220" y2="220"/><line style="stroke: #A80036; stroke-width: 1.2000000178813934;" x1="2998.8" x2="3114" y1="226.4" y2="226.4"/><!--class LHSExpression--><rect fill="#FEFECE" filter="url(#fq4k9v9ptdgg0)" height="38.4" id="LHSExpression" style="stroke: #A80036; stroke-width: 1.2000000178813934;" width="96.8" x="2172.8" y="194.4"/><ellipse cx="2184.8" cy="207.2" fill="#B4A7E5" rx="8.8" ry="8.8" style="stroke: #A80036; stroke-width: 0.800000011920929;"/><path d="M2181.9375,204 L2181.9375,202.4 L2187.85,202.4 L2187.85,204 L2185.875,204 L2185.875,210.4 L2187.85,210.4 L2187.85,212 L2181.9375,212 L2181.9375,210.4 L2183.9125,210.4 L2183.9125,204 L2181.9375,204 Z "/><text fill="#000000" font-family="sans-serif" font-size="9.6" font-style="italic" lengthAdjust="spacingAndGlyphs" textLength="71.2" x="2196" y="210.5234">LHSExpression</text><line style="stroke: #A80036; stroke-width: 1.2000000178813934;" x1="2173.6" x2="2268.8" y1="220" y2="220"/><line style="stroke: #A80036; stroke-width: 1.2000000178813934;" x1="2173.6" x2="2268.8" y1="226.4" y2="226.4"/><!--class expressionStatement--><rect fill="#FEFECE" filter="url(#fq4k9v9ptdgg0)" height="48.6438" id="expressionStatement" style="stroke: #A80036; stroke-width: 1.2000000178813934;" width="128" x="3142.8" y="189.2"/><ellipse cx="3154.8" cy="202" fill="#ADD1B2" rx="8.8" ry="8.8" style="stroke: #A80036; stroke-width: 0.800000011920929;"/><path d="M3157.175,206 Q3156.7125,206.4 3156.2,206.6 Q3155.6875,206.8 3155.125,206.8 Q3153.125,206.8 3152.0688,205.5688 Q3151.0125,204.3375 3151.0125,202 Q3151.0125,199.6625 3152.0688,198.4313 Q3153.125,197.2 3155.125,197.2 Q3155.6875,197.2 3156.2063,197.4 Q3156.725,197.6 3157.175,198 L3157.175,200.4 Q3156.675,199.575 3156.2,199.1875 Q3155.725,198.8 3155.2125,198.8 Q3154.15,198.8 3153.6,199.6063 Q3153.05,200.4125 3153.05,202 Q3153.05,203.5875 3153.6,204.3938 Q3154.15,205.2 3155.2125,205.2 Q3155.725,205.2 3156.2,204.8125 Q3156.675,204.425 3157.175,203.6 L3157.175,206 Z "/><text fill="#000000" font-family="sans-serif" font-size="9.6" lengthAdjust="spacingAndGlyphs" textLength="102.4" x="3166" y="205.3234">expressionStatement</text><line style="stroke: #A80036; stroke-width: 1.2000000178813934;" x1="3143.6" x2="3270" y1="214.8" y2="214.8"/><text fill="#000000" font-family="sans-serif" font-size="8.8" lengthAdjust="spacingAndGlyphs" textLength="102.4" x="3147.6" y="226.1684">expression expression</text><line style="stroke: #A80036; stroke-width: 1.2000000178813934;" x1="3143.6" x2="3270" y1="231.4438" y2="231.4438"/><!--class compoundStatement--><rect fill="#FEFECE" filter="url(#fq4k9v9ptdgg0)" height="58.8875" id="compoundStatement" style="stroke: #A80036; stroke-width: 1.2000000178813934;" width="138.4" x="3299.2" y="184"/><ellipse cx="3315.52" cy="196.8" fill="#ADD1B2" rx="8.8" ry="8.8" style="stroke: #A80036; stroke-width: 0.800000011920929;"/><path d="M3317.895,200.8 Q3317.4325,201.2 3316.92,201.4 Q3316.4075,201.6 3315.845,201.6 Q3313.845,201.6 3312.7888,200.3688 Q3311.7325,199.1375 3311.7325,196.8 Q3311.7325,194.4625 3312.7888,193.2313 Q3313.845,192 3315.845,192 Q3316.4075,192 3316.9263,192.2 Q3317.445,192.4 3317.895,192.8 L3317.895,195.2 Q3317.395,194.375 3316.92,193.9875 Q3316.445,193.6 3315.9325,193.6 Q3314.87,193.6 3314.32,194.4063 Q3313.77,195.2125 3313.77,196.8 Q3313.77,198.3875 3314.32,199.1938 Q3314.87,200 3315.9325,200 Q3316.445,200 3316.92,199.6125 Q3317.395,199.225 3317.895,198.4 L3317.895,200.8 Z "/><text fill="#000000" font-family="sans-serif" font-size="9.6" lengthAdjust="spacingAndGlyphs" textLength="103.2" x="3327.68" y="200.1234">compoundStatement</text><line style="stroke: #A80036; stroke-width: 1.2000000178813934;" x1="3300" x2="3436.8001" y1="209.6" y2="209.6"/><text fill="#000000" font-family="sans-serif" font-size="8.8" lengthAdjust="spacingAndGlyphs" textLength="128.8" x="3304" y="220.9684">List&lt;statement&gt; statements</text><text fill="#000000" font-family="sans-serif" font-size="8.8" lengthAdjust="spacingAndGlyphs" textLength="88" x="3304" y="231.2121">SymbolTable scope</text><line style="stroke: #A80036; stroke-width: 1.2000000178813934;" x1="3300" x2="3436.8001" y1="236.4875" y2="236.4875"/><!--class whileStatement--><rect fill="#FEFECE" filter="url(#fq4k9v9ptdgg0)" height="58.8875" id="whileStatement" style="stroke: #A80036; stroke-width: 1.2000000178813934;" width="117.6" x="3216" y="300.8"/><ellipse cx="3235.2" cy="313.6" fill="#ADD1B2" rx="8.8" ry="8.8" style="stroke: #A80036; stroke-width: 0.800000011920929;"/><path d="M3237.575,317.6 Q3237.1125,318 3236.6,318.2 Q3236.0875,318.4 3235.525,318.4 Q3233.525,318.4 3232.4688,317.1688 Q3231.4125,315.9375 3231.4125,313.6 Q3231.4125,311.2625 3232.4688,310.0313 Q3233.525,308.8 3235.525,308.8 Q3236.0875,308.8 3236.6063,309 Q3237.125,309.2 3237.575,309.6 L3237.575,312 Q3237.075,311.175 3236.6,310.7875 Q3236.125,310.4 3235.6125,310.4 Q3234.55,310.4 3234,311.2063 Q3233.45,312.0125 3233.45,313.6 Q3233.45,315.1875 3234,315.9938 Q3234.55,316.8 3235.6125,316.8 Q3236.125,316.8 3236.6,316.4125 Q3237.075,316.025 3237.575,315.2 L3237.575,317.6 Z "/><text fill="#000000" font-family="sans-serif" font-size="9.6" lengthAdjust="spacingAndGlyphs" textLength="76" x="3248" y="316.9234">whileStatement</text><line style="stroke: #A80036; stroke-width: 1.2000000178813934;" x1="3216.8" x2="3332.8" y1="326.4" y2="326.4"/><text fill="#000000" font-family="sans-serif" font-size="8.8" lengthAdjust="spacingAndGlyphs" textLength="93.6" x="3220.8" y="337.7684">expression condition</text><text fill="#000000" font-family="sans-serif" font-size="8.8" lengthAdjust="spacingAndGlyphs" textLength="108" x="3220.8" y="348.0121">statement consequence</text><line style="stroke: #A80036; stroke-width: 1.2000000178813934;" x1="3216.8" x2="3332.8" y1="353.2875" y2="353.2875"/><!--class declarationStatement--><rect fill="#FEFECE" filter="url(#fq4k9v9ptdgg0)" height="69.1313" id="declarationStatement" style="stroke: #A80036; stroke-width: 1.2000000178813934;" width="175.2" x="3465.6001" y="179.2"/><ellipse cx="3497.7601" cy="192" fill="#ADD1B2" rx="8.8" ry="8.8" style="stroke: #A80036; stroke-width: 0.800000011920929;"/><path d="M3500.1351,196 Q3499.6726,196.4 3499.1601,196.6 Q3498.6476,196.8 3498.0851,196.8 Q3496.0851,196.8 3495.0288,195.5688 Q3493.9726,194.3375 3493.9726,192 Q3493.9726,189.6625 3495.0288,188.4313 Q3496.0851,187.2 3498.0851,187.2 Q3498.6476,187.2 3499.1663,187.4 Q3499.6851,187.6 3500.1351,188 L3500.1351,190.4 Q3499.6351,189.575 3499.1601,189.1875 Q3498.6851,188.8 3498.1726,188.8 Q3497.1101,188.8 3496.5601,189.6063 Q3496.0101,190.4125 3496.0101,192 Q3496.0101,193.5875 3496.5601,194.3938 Q3497.1101,195.2 3498.1726,195.2 Q3498.6851,195.2 3499.1601,194.8125 Q3499.6351,194.425 3500.1351,193.6 L3500.1351,196 Z "/><text fill="#000000" font-family="sans-serif" font-size="9.6" lengthAdjust="spacingAndGlyphs" textLength="104.8" x="3513.4401" y="195.3234">declarationStatement</text><line style="stroke: #A80036; stroke-width: 1.2000000178813934;" x1="3466.4001" x2="3640.0001" y1="204.8" y2="204.8"/><text fill="#000000" font-family="sans-serif" font-size="8.8" lengthAdjust="spacingAndGlyphs" textLength="165.6" x="3470.4001" y="216.1684">List&lt;declarationSpecifier&gt; specifiers</text><text fill="#000000" font-family="sans-serif" font-size="8.8" lengthAdjust="spacingAndGlyphs" textLength="96" x="3470.4001" y="226.4121">declarator declarator</text><text fill="#000000" font-family="sans-serif" font-size="8.8" lengthAdjust="spacingAndGlyphs" textLength="84.8" x="3470.4001" y="236.6559">initializer initializer</text><line style="stroke: #A80036; stroke-width: 1.2000000178813934;" x1="3466.4001" x2="3640.0001" y1="241.9313" y2="241.9313"/><!--class returnStatement--><rect fill="#FEFECE" filter="url(#fq4k9v9ptdgg0)" height="48.6438" id="returnStatement" style="stroke: #A80036; stroke-width: 1.2000000178813934;" width="116" x="2792" y="306"/><ellipse cx="2807.96" cy="318.8" fill="#ADD1B2" rx="8.8" ry="8.8" style="stroke: #A80036; stroke-width: 0.800000011920929;"/><path d="M2810.335,322.8 Q2809.8725,323.2 2809.36,323.4 Q2808.8475,323.6 2808.285,323.6 Q2806.285,323.6 2805.2288,322.3688 Q2804.1725,321.1375 2804.1725,318.8 Q2804.1725,316.4625 2805.2288,315.2313 Q2806.285,314 2808.285,314 Q2808.8475,314 2809.3663,314.2 Q2809.885,314.4 2810.335,314.8 L2810.335,317.2 Q2809.835,316.375 2809.36,315.9875 Q2808.885,315.6 2808.3725,315.6 Q2807.31,315.6 2806.76,316.4063 Q2806.21,317.2125 2806.21,318.8 Q2806.21,320.3875 2806.76,321.1938 Q2807.31,322 2808.3725,322 Q2808.885,322 2809.36,321.6125 Q2809.835,321.225 2810.335,320.4 L2810.335,322.8 Z "/><text fill="#000000" font-family="sans-serif" font-size="9.6" lengthAdjust="spacingAndGlyphs" textLength="81.6" x="2820.04" y="322.1234">returnStatement</text><line style="stroke: #A80036; stroke-width: 1.2000000178813934;" x1="2792.8" x2="2907.2" y1="331.6" y2="331.6"/><text fill="#000000" font-family="sans-serif" font-size="8.8" lengthAdjust="spacingAndGlyphs" textLength="106.4" x="2796.8" y="342.9684">expression returnValue</text><line style="stroke: #A80036; stroke-width: 1.2000000178813934;" x1="2792.8" x2="2907.2" y1="348.2438" y2="348.2438"/><!--class ifStatement--><rect fill="#FEFECE" filter="url(#fq4k9v9ptdgg0)" height="69.1313" id="ifStatement" style="stroke: #A80036; stroke-width: 1.2000000178813934;" width="117.6" x="2646.4" y="296"/><ellipse cx="2674.24" cy="308.8" fill="#ADD1B2" rx="8.8" ry="8.8" style="stroke: #A80036; stroke-width: 0.800000011920929;"/><path d="M2676.615,312.8 Q2676.1525,313.2 2675.64,313.4 Q2675.1275,313.6 2674.565,313.6 Q2672.565,313.6 2671.5088,312.3688 Q2670.4525,311.1375 2670.4525,308.8 Q2670.4525,306.4625 2671.5088,305.2313 Q2672.565,304 2674.565,304 Q2675.1275,304 2675.6463,304.2 Q2676.165,304.4 2676.615,304.8 L2676.615,307.2 Q2676.115,306.375 2675.64,305.9875 Q2675.165,305.6 2674.6525,305.6 Q2673.59,305.6 2673.04,306.4063 Q2672.49,307.2125 2672.49,308.8 Q2672.49,310.3875 2673.04,311.1938 Q2673.59,312 2674.6525,312 Q2675.165,312 2675.64,311.6125 Q2676.115,311.225 2676.615,310.4 L2676.615,312.8 Z "/><text fill="#000000" font-family="sans-serif" font-size="9.6" lengthAdjust="spacingAndGlyphs" textLength="56.8" x="2688.96" y="312.1234">ifStatement</text><line style="stroke: #A80036; stroke-width: 1.2000000178813934;" x1="2647.2" x2="2763.2" y1="321.6" y2="321.6"/><text fill="#000000" font-family="sans-serif" font-size="8.8" lengthAdjust="spacingAndGlyphs" textLength="93.6" x="2651.2" y="332.9684">expression condition</text><text fill="#000000" font-family="sans-serif" font-size="8.8" lengthAdjust="spacingAndGlyphs" textLength="108" x="2651.2" y="343.2121">statement consequence</text><text fill="#000000" font-family="sans-serif" font-size="8.8" lengthAdjust="spacingAndGlyphs" textLength="97.6" x="2651.2" y="353.4559">statement alternative</text><line style="stroke: #A80036; stroke-width: 1.2000000178813934;" x1="2647.2" x2="2763.2" y1="358.7313" y2="358.7313"/><!--class stringLiteral--><rect fill="#FEFECE" filter="url(#fq4k9v9ptdgg0)" height="48.6438" id="stringLiteral" style="stroke: #A80036; stroke-width: 1.2000000178813934;" width="83.2" x="1674" y="306"/><ellipse cx="1686" cy="318.8" fill="#ADD1B2" rx="8.8" ry="8.8" style="stroke: #A80036; stroke-width: 0.800000011920929;"/><path d="M1688.375,322.8 Q1687.9125,323.2 1687.4,323.4 Q1686.8875,323.6 1686.325,323.6 Q1684.325,323.6 1683.2688,322.3688 Q1682.2125,321.1375 1682.2125,318.8 Q1682.2125,316.4625 1683.2688,315.2313 Q1684.325,314 1686.325,314 Q1686.8875,314 1687.4063,314.2 Q1687.925,314.4 1688.375,314.8 L1688.375,317.2 Q1687.875,316.375 1687.4,315.9875 Q1686.925,315.6 1686.4125,315.6 Q1685.35,315.6 1684.8,316.4063 Q1684.25,317.2125 1684.25,318.8 Q1684.25,320.3875 1684.8,321.1938 Q1685.35,322 1686.4125,322 Q1686.925,322 1687.4,321.6125 Q1687.875,321.225 1688.375,320.4 L1688.375,322.8 Z "/><text fill="#000000" font-family="sans-serif" font-size="9.6" lengthAdjust="spacingAndGlyphs" textLength="57.6" x="1697.2" y="322.1234">stringLiteral</text><line style="stroke: #A80036; stroke-width: 1.2000000178813934;" x1="1674.8" x2="1756.4" y1="331.6" y2="331.6"/><text fill="#000000" font-family="sans-serif" font-size="8.8" lengthAdjust="spacingAndGlyphs" textLength="54.4" x="1678.8" y="342.9684">String value</text><line style="stroke: #A80036; stroke-width: 1.2000000178813934;" x1="1674.8" x2="1756.4" y1="348.2438" y2="348.2438"/><!--class intLiteral--><rect fill="#FEFECE" filter="url(#fq4k9v9ptdgg0)" height="48.6438" id="intLiteral" style="stroke: #A80036; stroke-width: 1.2000000178813934;" width="68" x="1785.6" y="306"/><ellipse cx="1797.6" cy="318.8" fill="#ADD1B2" rx="8.8" ry="8.8" style="stroke: #A80036; stroke-width: 0.800000011920929;"/><path d="M1799.975,322.8 Q1799.5125,323.2 1799,323.4 Q1798.4875,323.6 1797.925,323.6 Q1795.925,323.6 1794.8688,322.3688 Q1793.8125,321.1375 1793.8125,318.8 Q1793.8125,316.4625 1794.8688,315.2313 Q1795.925,314 1797.925,314 Q1798.4875,314 1799.0063,314.2 Q1799.525,314.4 1799.975,314.8 L1799.975,317.2 Q1799.475,316.375 1799,315.9875 Q1798.525,315.6 1798.0125,315.6 Q1796.95,315.6 1796.4,316.4063 Q1795.85,317.2125 1795.85,318.8 Q1795.85,320.3875 1796.4,321.1938 Q1796.95,322 1798.0125,322 Q1798.525,322 1799,321.6125 Q1799.475,321.225 1799.975,320.4 L1799.975,322.8 Z "/><text fill="#000000" font-family="sans-serif" font-size="9.6" lengthAdjust="spacingAndGlyphs" textLength="42.4" x="1808.8" y="322.1234">intLiteral</text><line style="stroke: #A80036; stroke-width: 1.2000000178813934;" x1="1786.4" x2="1852.8" y1="331.6" y2="331.6"/><text fill="#000000" font-family="sans-serif" font-size="8.8" lengthAdjust="spacingAndGlyphs" textLength="39.2" x="1790.4" y="342.9684">int value</text><line style="stroke: #A80036; stroke-width: 1.2000000178813934;" x1="1786.4" x2="1852.8" y1="348.2438" y2="348.2438"/><!--class floatLiteral--><rect fill="#FEFECE" filter="url(#fq4k9v9ptdgg0)" height="48.6438" id="floatLiteral" style="stroke: #A80036; stroke-width: 1.2000000178813934;" width="76" x="1881.6" y="306"/><ellipse cx="1893.6" cy="318.8" fill="#ADD1B2" rx="8.8" ry="8.8" style="stroke: #A80036; stroke-width: 0.800000011920929;"/><path d="M1895.975,322.8 Q1895.5125,323.2 1895,323.4 Q1894.4875,323.6 1893.925,323.6 Q1891.925,323.6 1890.8688,322.3688 Q1889.8125,321.1375 1889.8125,318.8 Q1889.8125,316.4625 1890.8688,315.2313 Q1891.925,314 1893.925,314 Q1894.4875,314 1895.0063,314.2 Q1895.525,314.4 1895.975,314.8 L1895.975,317.2 Q1895.475,316.375 1895,315.9875 Q1894.525,315.6 1894.0125,315.6 Q1892.95,315.6 1892.4,316.4063 Q1891.85,317.2125 1891.85,318.8 Q1891.85,320.3875 1892.4,321.1938 Q1892.95,322 1894.0125,322 Q1894.525,322 1895,321.6125 Q1895.475,321.225 1895.975,320.4 L1895.975,322.8 Z "/><text fill="#000000" font-family="sans-serif" font-size="9.6" lengthAdjust="spacingAndGlyphs" textLength="50.4" x="1904.8" y="322.1234">floatLiteral</text><line style="stroke: #A80036; stroke-width: 1.2000000178813934;" x1="1882.4" x2="1956.8" y1="331.6" y2="331.6"/><text fill="#000000" font-family="sans-serif" font-size="8.8" lengthAdjust="spacingAndGlyphs" textLength="58.4" x="1886.4" y="342.9684">double value</text><line style="stroke: #A80036; stroke-width: 1.2000000178813934;" x1="1882.4" x2="1956.8" y1="348.2438" y2="348.2438"/><!--class castExpression--><rect fill="#FEFECE" filter="url(#fq4k9v9ptdgg0)" height="38.4" id="castExpression" style="stroke: #A80036; stroke-width: 1.2000000178813934;" width="97.6" x="798" y="412.8"/><ellipse cx="810" cy="425.6" fill="#ADD1B2" rx="8.8" ry="8.8" style="stroke: #A80036; stroke-width: 0.800000011920929;"/><path d="M812.375,429.6 Q811.9125,430 811.4,430.2 Q810.8875,430.4 810.325,430.4 Q808.325,430.4 807.2688,429.1688 Q806.2125,427.9375 806.2125,425.6 Q806.2125,423.2625 807.2688,422.0313 Q808.325,420.8 810.325,420.8 Q810.8875,420.8 811.4063,421 Q811.925,421.2 812.375,421.6 L812.375,424 Q811.875,423.175 811.4,422.7875 Q810.925,422.4 810.4125,422.4 Q809.35,422.4 808.8,423.2063 Q808.25,424.0125 808.25,425.6 Q808.25,427.1875 808.8,427.9938 Q809.35,428.8 810.4125,428.8 Q810.925,428.8 811.4,428.4125 Q811.875,428.025 812.375,427.2 L812.375,429.6 Z "/><text fill="#000000" font-family="sans-serif" font-size="9.6" lengthAdjust="spacingAndGlyphs" textLength="72" x="821.2" y="428.9234">castExpression</text><line style="stroke: #A80036; stroke-width: 1.2000000178813934;" x1="798.8" x2="894.8" y1="438.4" y2="438.4"/><line style="stroke: #A80036; stroke-width: 1.2000000178813934;" x1="798.8" x2="894.8" y1="444.8" y2="444.8"/><!--class incrementPrefixExpression--><rect fill="#FEFECE" filter="url(#fq4k9v9ptdgg0)" height="38.4" id="incrementPrefixExpression" style="stroke: #A80036; stroke-width: 1.2000000178813934;" width="153.6" x="923.6" y="412.8"/><ellipse cx="935.6" cy="425.6" fill="#ADD1B2" rx="8.8" ry="8.8" style="stroke: #A80036; stroke-width: 0.800000011920929;"/><path d="M937.975,429.6 Q937.5125,430 937,430.2 Q936.4875,430.4 935.925,430.4 Q933.925,430.4 932.8688,429.1688 Q931.8125,427.9375 931.8125,425.6 Q931.8125,423.2625 932.8688,422.0313 Q933.925,420.8 935.925,420.8 Q936.4875,420.8 937.0063,421 Q937.525,421.2 937.975,421.6 L937.975,424 Q937.475,423.175 937,422.7875 Q936.525,422.4 936.0125,422.4 Q934.95,422.4 934.4,423.2063 Q933.85,424.0125 933.85,425.6 Q933.85,427.1875 934.4,427.9938 Q934.95,428.8 936.0125,428.8 Q936.525,428.8 937,428.4125 Q937.475,428.025 937.975,427.2 L937.975,429.6 Z "/><text fill="#000000" font-family="sans-serif" font-size="9.6" lengthAdjust="spacingAndGlyphs" textLength="128" x="946.8" y="428.9234">incrementPrefixExpression</text><line style="stroke: #A80036; stroke-width: 1.2000000178813934;" x1="924.4" x2="1076.4" y1="438.4" y2="438.4"/><line style="stroke: #A80036; stroke-width: 1.2000000178813934;" x1="924.4" x2="1076.4" y1="444.8" y2="444.8"/><!--class decrementPrefixExpression--><rect fill="#FEFECE" filter="url(#fq4k9v9ptdgg0)" height="38.4" id="decrementPrefixExpression" style="stroke: #A80036; stroke-width: 1.2000000178813934;" width="156.8" x="1105.2" y="412.8"/><ellipse cx="1117.2" cy="425.6" fill="#ADD1B2" rx="8.8" ry="8.8" style="stroke: #A80036; stroke-width: 0.800000011920929;"/><path d="M1119.575,429.6 Q1119.1125,430 1118.6,430.2 Q1118.0875,430.4 1117.525,430.4 Q1115.525,430.4 1114.4688,429.1688 Q1113.4125,427.9375 1113.4125,425.6 Q1113.4125,423.2625 1114.4688,422.0313 Q1115.525,420.8 1117.525,420.8 Q1118.0875,420.8 1118.6063,421 Q1119.125,421.2 1119.575,421.6 L1119.575,424 Q1119.075,423.175 1118.6,422.7875 Q1118.125,422.4 1117.6125,422.4 Q1116.55,422.4 1116,423.2063 Q1115.45,424.0125 1115.45,425.6 Q1115.45,427.1875 1116,427.9938 Q1116.55,428.8 1117.6125,428.8 Q1118.125,428.8 1118.6,428.4125 Q1119.075,428.025 1119.575,427.2 L1119.575,429.6 Z "/><text fill="#000000" font-family="sans-serif" font-size="9.6" lengthAdjust="spacingAndGlyphs" textLength="131.2" x="1128.4" y="428.9234">decrementPrefixExpression</text><line style="stroke: #A80036; stroke-width: 1.2000000178813934;" x1="1106" x2="1261.2" y1="438.4" y2="438.4"/><line style="stroke: #A80036; stroke-width: 1.2000000178813934;" x1="1106" x2="1261.2" y1="444.8" y2="444.8"/><!--class addressOfExpression--><rect fill="#FEFECE" filter="url(#fq4k9v9ptdgg0)" height="38.4" id="addressOfExpression" style="stroke: #A80036; stroke-width: 1.2000000178813934;" width="125.6" x="1290.4" y="412.8"/><ellipse cx="1302.4" cy="425.6" fill="#ADD1B2" rx="8.8" ry="8.8" style="stroke: #A80036; stroke-width: 0.800000011920929;"/><path d="M1304.775,429.6 Q1304.3125,430 1303.8,430.2 Q1303.2875,430.4 1302.725,430.4 Q1300.725,430.4 1299.6688,429.1688 Q1298.6125,427.9375 1298.6125,425.6 Q1298.6125,423.2625 1299.6688,422.0313 Q1300.725,420.8 1302.725,420.8 Q1303.2875,420.8 1303.8063,421 Q1304.325,421.2 1304.775,421.6 L1304.775,424 Q1304.275,423.175 1303.8,422.7875 Q1303.325,422.4 1302.8125,422.4 Q1301.75,422.4 1301.2,423.2063 Q1300.65,424.0125 1300.65,425.6 Q1300.65,427.1875 1301.2,427.9938 Q1301.75,428.8 1302.8125,428.8 Q1303.325,428.8 1303.8,428.4125 Q1304.275,428.025 1304.775,427.2 L1304.775,429.6 Z "/><text fill="#000000" font-family="sans-serif" font-size="9.6" lengthAdjust="spacingAndGlyphs" textLength="100" x="1313.6" y="428.9234">addressOfExpression</text><line style="stroke: #A80036; stroke-width: 1.2000000178813934;" x1="1291.2" x2="1415.2" y1="438.4" y2="438.4"/><line style="stroke: #A80036; stroke-width: 1.2000000178813934;" x1="1291.2" x2="1415.2" y1="444.8" y2="444.8"/><!--class additivePrefixExpression--><rect fill="#FEFECE" filter="url(#fq4k9v9ptdgg0)" height="38.4" id="additivePrefixExpression" style="stroke: #A80036; stroke-width: 1.2000000178813934;" width="142.4" x="1444.4" y="412.8"/><ellipse cx="1456.4" cy="425.6" fill="#ADD1B2" rx="8.8" ry="8.8" style="stroke: #A80036; stroke-width: 0.800000011920929;"/><path d="M1458.775,429.6 Q1458.3125,430 1457.8,430.2 Q1457.2875,430.4 1456.725,430.4 Q1454.725,430.4 1453.6688,429.1688 Q1452.6125,427.9375 1452.6125,425.6 Q1452.6125,423.2625 1453.6688,422.0313 Q1454.725,420.8 1456.725,420.8 Q1457.2875,420.8 1457.8063,421 Q1458.325,421.2 1458.775,421.6 L1458.775,424 Q1458.275,423.175 1457.8,422.7875 Q1457.325,422.4 1456.8125,422.4 Q1455.75,422.4 1455.2,423.2063 Q1454.65,424.0125 1454.65,425.6 Q1454.65,427.1875 1455.2,427.9938 Q1455.75,428.8 1456.8125,428.8 Q1457.325,428.8 1457.8,428.4125 Q1458.275,428.025 1458.775,427.2 L1458.775,429.6 Z "/><text fill="#000000" font-family="sans-serif" font-size="9.6" lengthAdjust="spacingAndGlyphs" textLength="116.8" x="1467.6" y="428.9234">additivePrefixExpression</text><line style="stroke: #A80036; stroke-width: 1.2000000178813934;" x1="1445.2" x2="1586" y1="438.4" y2="438.4"/><line style="stroke: #A80036; stroke-width: 1.2000000178813934;" x1="1445.2" x2="1586" y1="444.8" y2="444.8"/><!--class referencePrefixExpression--><rect fill="#FEFECE" filter="url(#fq4k9v9ptdgg0)" height="38.4" id="referencePrefixExpression" style="stroke: #A80036; stroke-width: 1.2000000178813934;" width="149.6" x="1985.6" y="311.2"/><ellipse cx="1997.6" cy="324" fill="#ADD1B2" rx="8.8" ry="8.8" style="stroke: #A80036; stroke-width: 0.800000011920929;"/><path d="M1999.975,328 Q1999.5125,328.4 1999,328.6 Q1998.4875,328.8 1997.925,328.8 Q1995.925,328.8 1994.8688,327.5688 Q1993.8125,326.3375 1993.8125,324 Q1993.8125,321.6625 1994.8688,320.4313 Q1995.925,319.2 1997.925,319.2 Q1998.4875,319.2 1999.0063,319.4 Q1999.525,319.6 1999.975,320 L1999.975,322.4 Q1999.475,321.575 1999,321.1875 Q1998.525,320.8 1998.0125,320.8 Q1996.95,320.8 1996.4,321.6063 Q1995.85,322.4125 1995.85,324 Q1995.85,325.5875 1996.4,326.3938 Q1996.95,327.2 1998.0125,327.2 Q1998.525,327.2 1999,326.8125 Q1999.475,326.425 1999.975,325.6 L1999.975,328 Z "/><text fill="#000000" font-family="sans-serif" font-size="9.6" lengthAdjust="spacingAndGlyphs" textLength="124" x="2008.8" y="327.3234">referencePrefixExpression</text><line style="stroke: #A80036; stroke-width: 1.2000000178813934;" x1="1986.4" x2="2134.4" y1="336.8" y2="336.8"/><line style="stroke: #A80036; stroke-width: 1.2000000178813934;" x1="1986.4" x2="2134.4" y1="343.2" y2="343.2"/><!--class variableExpression--><rect fill="#FEFECE" filter="url(#fq4k9v9ptdgg0)" height="38.4" id="variableExpression" style="stroke: #A80036; stroke-width: 1.2000000178813934;" width="115.2" x="2163.6" y="311.2"/><ellipse cx="2175.6" cy="324" fill="#ADD1B2" rx="8.8" ry="8.8" style="stroke: #A80036; stroke-width: 0.800000011920929;"/><path d="M2177.975,328 Q2177.5125,328.4 2177,328.6 Q2176.4875,328.8 2175.925,328.8 Q2173.925,328.8 2172.8688,327.5688 Q2171.8125,326.3375 2171.8125,324 Q2171.8125,321.6625 2172.8688,320.4313 Q2173.925,319.2 2175.925,319.2 Q2176.4875,319.2 2177.0063,319.4 Q2177.525,319.6 2177.975,320 L2177.975,322.4 Q2177.475,321.575 2177,321.1875 Q2176.525,320.8 2176.0125,320.8 Q2174.95,320.8 2174.4,321.6063 Q2173.85,322.4125 2173.85,324 Q2173.85,325.5875 2174.4,326.3938 Q2174.95,327.2 2176.0125,327.2 Q2176.525,327.2 2177,326.8125 Q2177.475,326.425 2177.975,325.6 L2177.975,328 Z "/><text fill="#000000" font-family="sans-serif" font-size="9.6" lengthAdjust="spacingAndGlyphs" textLength="89.6" x="2186.8" y="327.3234">variableExpression</text><line style="stroke: #A80036; stroke-width: 1.2000000178813934;" x1="2164.4" x2="2278" y1="336.8" y2="336.8"/><line style="stroke: #A80036; stroke-width: 1.2000000178813934;" x1="2164.4" x2="2278" y1="343.2" y2="343.2"/><!--class variablePointerExpression--><rect fill="#FEFECE" filter="url(#fq4k9v9ptdgg0)" height="38.4" id="variablePointerExpression" style="stroke: #A80036; stroke-width: 1.2000000178813934;" width="148.8" x="2306.8" y="311.2"/><ellipse cx="2318.8" cy="324" fill="#ADD1B2" rx="8.8" ry="8.8" style="stroke: #A80036; stroke-width: 0.800000011920929;"/><path d="M2321.175,328 Q2320.7125,328.4 2320.2,328.6 Q2319.6875,328.8 2319.125,328.8 Q2317.125,328.8 2316.0688,327.5688 Q2315.0125,326.3375 2315.0125,324 Q2315.0125,321.6625 2316.0688,320.4313 Q2317.125,319.2 2319.125,319.2 Q2319.6875,319.2 2320.2063,319.4 Q2320.725,319.6 2321.175,320 L2321.175,322.4 Q2320.675,321.575 2320.2,321.1875 Q2319.725,320.8 2319.2125,320.8 Q2318.15,320.8 2317.6,321.6063 Q2317.05,322.4125 2317.05,324 Q2317.05,325.5875 2317.6,326.3938 Q2318.15,327.2 2319.2125,327.2 Q2319.725,327.2 2320.2,326.8125 Q2320.675,326.425 2321.175,325.6 L2321.175,328 Z "/><text fill="#000000" font-family="sans-serif" font-size="9.6" lengthAdjust="spacingAndGlyphs" textLength="123.2" x="2330" y="327.3234">variablePointerExpression</text><line style="stroke: #A80036; stroke-width: 1.2000000178813934;" x1="2307.6" x2="2454.8" y1="336.8" y2="336.8"/><line style="stroke: #A80036; stroke-width: 1.2000000178813934;" x1="2307.6" x2="2454.8" y1="343.2" y2="343.2"/><!--class dereferenceExpression--><rect fill="#FEFECE" filter="url(#fq4k9v9ptdgg0)" height="38.4" id="dereferenceExpression" style="stroke: #A80036; stroke-width: 1.2000000178813934;" width="135.2" x="2483.2" y="311.2"/><ellipse cx="2495.2" cy="324" fill="#ADD1B2" rx="8.8" ry="8.8" style="stroke: #A80036; stroke-width: 0.800000011920929;"/><path d="M2497.575,328 Q2497.1125,328.4 2496.6,328.6 Q2496.0875,328.8 2495.525,328.8 Q2493.525,328.8 2492.4688,327.5688 Q2491.4125,326.3375 2491.4125,324 Q2491.4125,321.6625 2492.4688,320.4313 Q2493.525,319.2 2495.525,319.2 Q2496.0875,319.2 2496.6063,319.4 Q2497.125,319.6 2497.575,320 L2497.575,322.4 Q2497.075,321.575 2496.6,321.1875 Q2496.125,320.8 2495.6125,320.8 Q2494.55,320.8 2494,321.6063 Q2493.45,322.4125 2493.45,324 Q2493.45,325.5875 2494,326.3938 Q2494.55,327.2 2495.6125,327.2 Q2496.125,327.2 2496.6,326.8125 Q2497.075,326.425 2497.575,325.6 L2497.575,328 Z "/><text fill="#000000" font-family="sans-serif" font-size="9.6" lengthAdjust="spacingAndGlyphs" textLength="109.6" x="2506.4" y="327.3234">dereferenceExpression</text><line style="stroke: #A80036; stroke-width: 1.2000000178813934;" x1="2484" x2="2617.6" y1="336.8" y2="336.8"/><line style="stroke: #A80036; stroke-width: 1.2000000178813934;" x1="2484" x2="2617.6" y1="343.2" y2="343.2"/><!--class incrementPostfixExpression--><rect fill="#FEFECE" filter="url(#fq4k9v9ptdgg0)" height="38.4" id="incrementPostfixExpression" style="stroke: #A80036; stroke-width: 1.2000000178813934;" width="158.4" x="1614.8" y="412.8"/><ellipse cx="1626.8" cy="425.6" fill="#ADD1B2" rx="8.8" ry="8.8" style="stroke: #A80036; stroke-width: 0.800000011920929;"/><path d="M1629.175,429.6 Q1628.7125,430 1628.2,430.2 Q1627.6875,430.4 1627.125,430.4 Q1625.125,430.4 1624.0688,429.1688 Q1623.0125,427.9375 1623.0125,425.6 Q1623.0125,423.2625 1624.0688,422.0313 Q1625.125,420.8 1627.125,420.8 Q1627.6875,420.8 1628.2063,421 Q1628.725,421.2 1629.175,421.6 L1629.175,424 Q1628.675,423.175 1628.2,422.7875 Q1627.725,422.4 1627.2125,422.4 Q1626.15,422.4 1625.6,423.2063 Q1625.05,424.0125 1625.05,425.6 Q1625.05,427.1875 1625.6,427.9938 Q1626.15,428.8 1627.2125,428.8 Q1627.725,428.8 1628.2,428.4125 Q1628.675,428.025 1629.175,427.2 L1629.175,429.6 Z "/><text fill="#000000" font-family="sans-serif" font-size="9.6" lengthAdjust="spacingAndGlyphs" textLength="132.8" x="1638" y="428.9234">incrementPostfixExpression</text><line style="stroke: #A80036; stroke-width: 1.2000000178813934;" x1="1615.6" x2="1772.4" y1="438.4" y2="438.4"/><line style="stroke: #A80036; stroke-width: 1.2000000178813934;" x1="1615.6" x2="1772.4" y1="444.8" y2="444.8"/><!--class decrementPostfixExpression--><rect fill="#FEFECE" filter="url(#fq4k9v9ptdgg0)" height="38.4" id="decrementPostfixExpression" style="stroke: #A80036; stroke-width: 1.2000000178813934;" width="161.6" x="1801.2" y="412.8"/><ellipse cx="1813.2" cy="425.6" fill="#ADD1B2" rx="8.8" ry="8.8" style="stroke: #A80036; stroke-width: 0.800000011920929;"/><path d="M1815.575,429.6 Q1815.1125,430 1814.6,430.2 Q1814.0875,430.4 1813.525,430.4 Q1811.525,430.4 1810.4688,429.1688 Q1809.4125,427.9375 1809.4125,425.6 Q1809.4125,423.2625 1810.4688,422.0313 Q1811.525,420.8 1813.525,420.8 Q1814.0875,420.8 1814.6063,421 Q1815.125,421.2 1815.575,421.6 L1815.575,424 Q1815.075,423.175 1814.6,422.7875 Q1814.125,422.4 1813.6125,422.4 Q1812.55,422.4 1812,423.2063 Q1811.45,424.0125 1811.45,425.6 Q1811.45,427.1875 1812,427.9938 Q1812.55,428.8 1813.6125,428.8 Q1814.125,428.8 1814.6,428.4125 Q1815.075,428.025 1815.575,427.2 L1815.575,429.6 Z "/><text fill="#000000" font-family="sans-serif" font-size="9.6" lengthAdjust="spacingAndGlyphs" textLength="136" x="1824.4" y="428.9234">decrementPostfixExpression</text><line style="stroke: #A80036; stroke-width: 1.2000000178813934;" x1="1802" x2="1962" y1="438.4" y2="438.4"/><line style="stroke: #A80036; stroke-width: 1.2000000178813934;" x1="1802" x2="1962" y1="444.8" y2="444.8"/><!--class assignmentExpression--><rect fill="#FEFECE" filter="url(#fq4k9v9ptdgg0)" height="38.4" id="assignmentExpression" style="stroke: #A80036; stroke-width: 1.2000000178813934;" width="133.6" x="656" y="311.2"/><ellipse cx="668" cy="324" fill="#ADD1B2" rx="8.8" ry="8.8" style="stroke: #A80036; stroke-width: 0.800000011920929;"/><path d="M670.375,328 Q669.9125,328.4 669.4,328.6 Q668.8875,328.8 668.325,328.8 Q666.325,328.8 665.2688,327.5688 Q664.2125,326.3375 664.2125,324 Q664.2125,321.6625 665.2688,320.4313 Q666.325,319.2 668.325,319.2 Q668.8875,319.2 669.4063,319.4 Q669.925,319.6 670.375,320 L670.375,322.4 Q669.875,321.575 669.4,321.1875 Q668.925,320.8 668.4125,320.8 Q667.35,320.8 666.8,321.6063 Q666.25,322.4125 666.25,324 Q666.25,325.5875 666.8,326.3938 Q667.35,327.2 668.4125,327.2 Q668.925,327.2 669.4,326.8125 Q669.875,326.425 670.375,325.6 L670.375,328 Z "/><text fill="#000000" font-family="sans-serif" font-size="9.6" lengthAdjust="spacingAndGlyphs" textLength="108" x="679.2" y="327.3234">assignmentExpression</text><line style="stroke: #A80036; stroke-width: 1.2000000178813934;" x1="656.8" x2="788.8" y1="336.8" y2="336.8"/><line style="stroke: #A80036; stroke-width: 1.2000000178813934;" x1="656.8" x2="788.8" y1="343.2" y2="343.2"/><!--class additiveExpression--><rect fill="#FEFECE" filter="url(#fq4k9v9ptdgg0)" height="38.4" id="additiveExpression" style="stroke: #A80036; stroke-width: 1.2000000178813934;" width="116" x="4.8" y="412.8"/><ellipse cx="16.8" cy="425.6" fill="#ADD1B2" rx="8.8" ry="8.8" style="stroke: #A80036; stroke-width: 0.800000011920929;"/><path d="M19.175,429.6 Q18.7125,430 18.2,430.2 Q17.6875,430.4 17.125,430.4 Q15.125,430.4 14.0688,429.1688 Q13.0125,427.9375 13.0125,425.6 Q13.0125,423.2625 14.0688,422.0313 Q15.125,420.8 17.125,420.8 Q17.6875,420.8 18.2063,421 Q18.725,421.2 19.175,421.6 L19.175,424 Q18.675,423.175 18.2,422.7875 Q17.725,422.4 17.2125,422.4 Q16.15,422.4 15.6,423.2063 Q15.05,424.0125 15.05,425.6 Q15.05,427.1875 15.6,427.9938 Q16.15,428.8 17.2125,428.8 Q17.725,428.8 18.2,428.4125 Q18.675,428.025 19.175,427.2 L19.175,429.6 Z "/><text fill="#000000" font-family="sans-serif" font-size="9.6" lengthAdjust="spacingAndGlyphs" textLength="90.4" x="28" y="428.9234">additiveExpression</text><line style="stroke: #A80036; stroke-width: 1.2000000178813934;" x1="5.6" x2="120" y1="438.4" y2="438.4"/><line style="stroke: #A80036; stroke-width: 1.2000000178813934;" x1="5.6" x2="120" y1="444.8" y2="444.8"/><!--class multiplicativeExpression--><rect fill="#FEFECE" filter="url(#fq4k9v9ptdgg0)" height="38.4" id="multiplicativeExpression" style="stroke: #A80036; stroke-width: 1.2000000178813934;" width="142.4" x="149.2" y="412.8"/><ellipse cx="161.2" cy="425.6" fill="#ADD1B2" rx="8.8" ry="8.8" style="stroke: #A80036; stroke-width: 0.800000011920929;"/><path d="M163.575,429.6 Q163.1125,430 162.6,430.2 Q162.0875,430.4 161.525,430.4 Q159.525,430.4 158.4688,429.1688 Q157.4125,427.9375 157.4125,425.6 Q157.4125,423.2625 158.4688,422.0313 Q159.525,420.8 161.525,420.8 Q162.0875,420.8 162.6063,421 Q163.125,421.2 163.575,421.6 L163.575,424 Q163.075,423.175 162.6,422.7875 Q162.125,422.4 161.6125,422.4 Q160.55,422.4 160,423.2063 Q159.45,424.0125 159.45,425.6 Q159.45,427.1875 160,427.9938 Q160.55,428.8 161.6125,428.8 Q162.125,428.8 162.6,428.4125 Q163.075,428.025 163.575,427.2 L163.575,429.6 Z "/><text fill="#000000" font-family="sans-serif" font-size="9.6" lengthAdjust="spacingAndGlyphs" textLength="116.8" x="172.4" y="428.9234">multiplicativeExpression</text><line style="stroke: #A80036; stroke-width: 1.2000000178813934;" x1="150" x2="290.8" y1="438.4" y2="438.4"/><line style="stroke: #A80036; stroke-width: 1.2000000178813934;" x1="150" x2="290.8" y1="444.8" y2="444.8"/><!--class logicalEqualityExpression--><rect fill="#FEFECE" filter="url(#fq4k9v9ptdgg0)" height="38.4" id="logicalEqualityExpression" style="stroke: #A80036; stroke-width: 1.2000000178813934;" width="147.2" x="319.6" y="412.8"/><ellipse cx="331.6" cy="425.6" fill="#ADD1B2" rx="8.8" ry="8.8" style="stroke: #A80036; stroke-width: 0.800000011920929;"/><path d="M333.975,429.6 Q333.5125,430 333,430.2 Q332.4875,430.4 331.925,430.4 Q329.925,430.4 328.8688,429.1688 Q327.8125,427.9375 327.8125,425.6 Q327.8125,423.2625 328.8688,422.0313 Q329.925,420.8 331.925,420.8 Q332.4875,420.8 333.0063,421 Q333.525,421.2 333.975,421.6 L333.975,424 Q333.475,423.175 333,422.7875 Q332.525,422.4 332.0125,422.4 Q330.95,422.4 330.4,423.2063 Q329.85,424.0125 329.85,425.6 Q329.85,427.1875 330.4,427.9938 Q330.95,428.8 332.0125,428.8 Q332.525,428.8 333,428.4125 Q333.475,428.025 333.975,427.2 L333.975,429.6 Z "/><text fill="#000000" font-family="sans-serif" font-size="9.6" lengthAdjust="spacingAndGlyphs" textLength="121.6" x="342.8" y="428.9234">logicalEqualityExpression</text><line style="stroke: #A80036; stroke-width: 1.2000000178813934;" x1="320.4" x2="466" y1="438.4" y2="438.4"/><line style="stroke: #A80036; stroke-width: 1.2000000178813934;" x1="320.4" x2="466" y1="444.8" y2="444.8"/><!--class logicalAndExpression--><rect fill="#FEFECE" filter="url(#fq4k9v9ptdgg0)" height="38.4" id="logicalAndExpression" style="stroke: #A80036; stroke-width: 1.2000000178813934;" width="127.2" x="495.2" y="412.8"/><ellipse cx="507.2" cy="425.6" fill="#ADD1B2" rx="8.8" ry="8.8" style="stroke: #A80036; stroke-width: 0.800000011920929;"/><path d="M509.575,429.6 Q509.1125,430 508.6,430.2 Q508.0875,430.4 507.525,430.4 Q505.525,430.4 504.4688,429.1688 Q503.4125,427.9375 503.4125,425.6 Q503.4125,423.2625 504.4688,422.0313 Q505.525,420.8 507.525,420.8 Q508.0875,420.8 508.6063,421 Q509.125,421.2 509.575,421.6 L509.575,424 Q509.075,423.175 508.6,422.7875 Q508.125,422.4 507.6125,422.4 Q506.55,422.4 506,423.2063 Q505.45,424.0125 505.45,425.6 Q505.45,427.1875 506,427.9938 Q506.55,428.8 507.6125,428.8 Q508.125,428.8 508.6,428.4125 Q509.075,428.025 509.575,427.2 L509.575,429.6 Z "/><text fill="#000000" font-family="sans-serif" font-size="9.6" lengthAdjust="spacingAndGlyphs" textLength="101.6" x="518.4" y="428.9234">logicalAndExpression</text><line style="stroke: #A80036; stroke-width: 1.2000000178813934;" x1="496" x2="621.6" y1="438.4" y2="438.4"/><line style="stroke: #A80036; stroke-width: 1.2000000178813934;" x1="496" x2="621.6" y1="444.8" y2="444.8"/><!--class logicalOrExpression--><rect fill="#FEFECE" filter="url(#fq4k9v9ptdgg0)" height="38.4" id="logicalOrExpression" style="stroke: #A80036; stroke-width: 1.2000000178813934;" width="119.2" x="650.4" y="412.8"/><ellipse cx="662.4" cy="425.6" fill="#ADD1B2" rx="8.8" ry="8.8" style="stroke: #A80036; stroke-width: 0.800000011920929;"/><path d="M664.775,429.6 Q664.3125,430 663.8,430.2 Q663.2875,430.4 662.725,430.4 Q660.725,430.4 659.6688,429.1688 Q658.6125,427.9375 658.6125,425.6 Q658.6125,423.2625 659.6688,422.0313 Q660.725,420.8 662.725,420.8 Q663.2875,420.8 663.8063,421 Q664.325,421.2 664.775,421.6 L664.775,424 Q664.275,423.175 663.8,422.7875 Q663.325,422.4 662.8125,422.4 Q661.75,422.4 661.2,423.2063 Q660.65,424.0125 660.65,425.6 Q660.65,427.1875 661.2,427.9938 Q661.75,428.8 662.8125,428.8 Q663.325,428.8 663.8,428.4125 Q664.275,428.025 664.775,427.2 L664.775,429.6 Z "/><text fill="#000000" font-family="sans-serif" font-size="9.6" lengthAdjust="spacingAndGlyphs" textLength="93.6" x="673.6" y="428.9234">logicalOrExpression</text><line style="stroke: #A80036; stroke-width: 1.2000000178813934;" x1="651.2" x2="768.8" y1="438.4" y2="438.4"/><line style="stroke: #A80036; stroke-width: 1.2000000178813934;" x1="651.2" x2="768.8" y1="444.8" y2="444.8"/><!--class breakStatement--><rect fill="#FEFECE" filter="url(#fq4k9v9ptdgg0)" height="38.4" id="breakStatement" style="stroke: #A80036; stroke-width: 1.2000000178813934;" width="104" x="2936.4" y="311.2"/><ellipse cx="2948.4" cy="324" fill="#ADD1B2" rx="8.8" ry="8.8" style="stroke: #A80036; stroke-width: 0.800000011920929;"/><path d="M2950.775,328 Q2950.3125,328.4 2949.8,328.6 Q2949.2875,328.8 2948.725,328.8 Q2946.725,328.8 2945.6688,327.5688 Q2944.6125,326.3375 2944.6125,324 Q2944.6125,321.6625 2945.6688,320.4313 Q2946.725,319.2 2948.725,319.2 Q2949.2875,319.2 2949.8063,319.4 Q2950.325,319.6 2950.775,320 L2950.775,322.4 Q2950.275,321.575 2949.8,321.1875 Q2949.325,320.8 2948.8125,320.8 Q2947.75,320.8 2947.2,321.6063 Q2946.65,322.4125 2946.65,324 Q2946.65,325.5875 2947.2,326.3938 Q2947.75,327.2 2948.8125,327.2 Q2949.325,327.2 2949.8,326.8125 Q2950.275,326.425 2950.775,325.6 L2950.775,328 Z "/><text fill="#000000" font-family="sans-serif" font-size="9.6" lengthAdjust="spacingAndGlyphs" textLength="78.4" x="2959.6" y="327.3234">breakStatement</text><line style="stroke: #A80036; stroke-width: 1.2000000178813934;" x1="2937.2" x2="3039.6" y1="336.8" y2="336.8"/><line style="stroke: #A80036; stroke-width: 1.2000000178813934;" x1="2937.2" x2="3039.6" y1="343.2" y2="343.2"/><!--class continueStatement--><rect fill="#FEFECE" filter="url(#fq4k9v9ptdgg0)" height="38.4" id="continueStatement" style="stroke: #A80036; stroke-width: 1.2000000178813934;" width="119.2" x="3068.8" y="311.2"/><ellipse cx="3080.8" cy="324" fill="#ADD1B2" rx="8.8" ry="8.8" style="stroke: #A80036; stroke-width: 0.800000011920929;"/><path d="M3083.175,328 Q3082.7125,328.4 3082.2,328.6 Q3081.6875,328.8 3081.125,328.8 Q3079.125,328.8 3078.0688,327.5688 Q3077.0125,326.3375 3077.0125,324 Q3077.0125,321.6625 3078.0688,320.4313 Q3079.125,319.2 3081.125,319.2 Q3081.6875,319.2 3082.2063,319.4 Q3082.725,319.6 3083.175,320 L3083.175,322.4 Q3082.675,321.575 3082.2,321.1875 Q3081.725,320.8 3081.2125,320.8 Q3080.15,320.8 3079.6,321.6063 Q3079.05,322.4125 3079.05,324 Q3079.05,325.5875 3079.6,326.3938 Q3080.15,327.2 3081.2125,327.2 Q3081.725,327.2 3082.2,326.8125 Q3082.675,326.425 3083.175,325.6 L3083.175,328 Z "/><text fill="#000000" font-family="sans-serif" font-size="9.6" lengthAdjust="spacingAndGlyphs" textLength="93.6" x="3092" y="327.3234">continueStatement</text><line style="stroke: #A80036; stroke-width: 1.2000000178813934;" x1="3069.6" x2="3187.2" y1="336.8" y2="336.8"/><line style="stroke: #A80036; stroke-width: 1.2000000178813934;" x1="3069.6" x2="3187.2" y1="343.2" y2="343.2"/><!--link node to expression--><path d="M2362.512,32.3656 C2254.512,48.048 1963.712,90.2744 1858.368,105.5704 " fill="none" id="node-expression" style="stroke: #A80036; stroke-width: 0.800000011920929;"/><polygon fill="none" points="2361.864,26.8008,2378.504,30.044,2363.48,37.8848,2361.864,26.8008" style="stroke: #A80036; stroke-width: 0.800000011920929;"/><!--link node to statement--><path d="M2444.96,31.7728 C2563.744,47.2032 2904.696,91.4936 3018.736,106.3072 " fill="none" id="node-statement" style="stroke: #A80036; stroke-width: 0.800000011920929;"/><polygon fill="none" points="2443.936,37.2872,2428.792,29.672,2445.376,26.18,2443.936,37.2872" style="stroke: #A80036; stroke-width: 0.800000011920929;"/><!--link expression to binaryExpression--><path d="M1765.04,117.4296 C1567.616,134.1832 891.744,191.5384 695.208,208.2168 " fill="none" id="expression-binaryExpression" style="stroke: #A80036; stroke-width: 0.800000011920929;"/><polygon fill="none" points="1764.648,111.8432,1781.064,116.0704,1765.592,123.0032,1764.648,111.8432" style="stroke: #A80036; stroke-width: 0.800000011920929;"/><!--link expression to unaryExpression--><path d="M1766.264,136.1104 C1725.672,153.8528 1670.568,177.9376 1633.008,194.3512 " fill="none" id="expression-unaryExpression" style="stroke: #A80036; stroke-width: 0.800000011920929;"/><polygon fill="none" points="1764.144,130.9272,1781.048,129.6504,1768.624,141.1896,1764.144,130.9272" style="stroke: #A80036; stroke-width: 0.800000011920929;"/><!--link expression to literalExpression--><path d="M1819.6,147.4816 C1819.6,161.196 1819.6,176.612 1819.6,189.0224 " fill="none" id="expression-literalExpression" style="stroke: #A80036; stroke-width: 0.800000011920929;"/><polygon fill="none" points="1814,147.3752,1819.6,131.3752,1825.2,147.3752,1814,147.3752" style="stroke: #A80036; stroke-width: 0.800000011920929;"/><!--link expression to LHSExpression--><path d="M1873.856,126.3088 C1952.56,145.9072 2097.216,181.928 2172.616,200.7016 " fill="none" id="expression-LHSExpression" style="stroke: #A80036; stroke-width: 0.800000011920929;"/><polygon fill="none" points="1872.28,131.6888,1858.104,122.3888,1874.984,120.8208,1872.28,131.6888" style="stroke: #A80036; stroke-width: 0.800000011920929;"/><!--link literalExpression to intLiteral--><path d="M1819.6,254.3768 C1819.6,271.5072 1819.6,290.9392 1819.6,305.7608 " fill="none" id="literalExpression-intLiteral" style="stroke: #A80036; stroke-width: 0.800000011920929;"/><polygon fill="none" points="1814,254.2696,1819.6,238.2696,1825.2,254.2696,1814,254.2696" style="stroke: #A80036; stroke-width: 0.800000011920929;"/><!--link literalExpression to floatLiteral--><path d="M1850.856,250.4072 C1866.512,268.4432 1885.032,289.7808 1898.904,305.7608 " fill="none" id="literalExpression-floatLiteral" style="stroke: #A80036; stroke-width: 0.800000011920929;"/><polygon fill="none" points="1846.576,254.0232,1840.32,238.2696,1855.04,246.6816,1846.576,254.0232" style="stroke: #A80036; stroke-width: 0.800000011920929;"/><!--link literalExpression to stringLiteral--><path d="M1787.328,250.1464 C1771,268.2368 1751.616,289.704 1737.12,305.7608 " fill="none" id="literalExpression-stringLiteral" style="stroke: #A80036; stroke-width: 0.800000011920929;"/><polygon fill="none" points="1783.176,246.3936,1798.048,238.2696,1791.488,253.8984,1783.176,246.3936" style="stroke: #A80036; stroke-width: 0.800000011920929;"/><!--link unaryExpression to prefixExpression--><path d="M1523.848,238.324 C1463.28,259.964 1375.368,291.3792 1320.072,311.1368 " fill="none" id="unaryExpression-prefixExpression" style="stroke: #A80036; stroke-width: 0.800000011920929;"/><polygon fill="none" points="1522.048,233.0192,1539,232.9088,1525.816,243.5664,1522.048,233.0192" style="stroke: #A80036; stroke-width: 0.800000011920929;"/><!--link unaryExpression to postfixExpression--><path d="M1590.8,249.0104 C1590.8,269.4224 1590.8,294.4416 1590.8,311.1368 " fill="none" id="unaryExpression-postfixExpression" style="stroke: #A80036; stroke-width: 0.800000011920929;"/><polygon fill="none" points="1585.2,248.9088,1590.8,232.9088,1596.4,248.9088,1585.2,248.9088" style="stroke: #A80036; stroke-width: 0.800000011920929;"/><!--link prefixExpression to castExpression--><path d="M1199.928,345.4048 C1127.424,360.7608 1009.768,386.5767 909.2,412.8 C904.832,413.9398 900.296,415.1727 895.768,416.4418 " fill="none" id="prefixExpression-castExpression" style="stroke: #A80036; stroke-width: 0.800000011920929;"/><polygon fill="none" points="1198.984,339.88,1215.8,342.0576,1201.296,350.8384,1198.984,339.88" style="stroke: #A80036; stroke-width: 0.800000011920929;"/><!--link prefixExpression to incrementPrefixExpression--><path d="M1203.856,355.2848 C1156.504,372.9532 1093.16,396.5882 1049.808,412.765 " fill="none" id="prefixExpression-incrementPrefixExpression" style="stroke: #A80036; stroke-width: 0.800000011920929;"/><polygon fill="none" points="1201.984,350.0048,1218.936,349.6584,1205.896,360.4984,1201.984,350.0048" style="stroke: #A80036; stroke-width: 0.800000011920929;"/><!--link prefixExpression to decrementPrefixExpression--><path d="M1242.128,362.1848 C1228.08,378.7462 1211.264,398.5784 1199.264,412.7246 " fill="none" id="prefixExpression-decrementPrefixExpression" style="stroke: #A80036; stroke-width: 0.800000011920929;"/><polygon fill="none" points="1238.032,358.356,1252.648,349.7752,1246.568,365.6,1238.032,358.356" style="stroke: #A80036; stroke-width: 0.800000011920929;"/><!--link prefixExpression to addressOfExpression--><path d="M1294.672,362.1848 C1308.72,378.7462 1325.536,398.5784 1337.536,412.7246 " fill="none" id="prefixExpression-addressOfExpression" style="stroke: #A80036; stroke-width: 0.800000011920929;"/><polygon fill="none" points="1290.232,365.6,1284.152,349.7752,1298.768,358.356,1290.232,365.6" style="stroke: #A80036; stroke-width: 0.800000011920929;"/><!--link prefixExpression to additivePrefixExpression--><path d="M1329.08,355.7464 C1372.624,373.3627 1430.384,396.7286 1470.032,412.765 " fill="none" id="prefixExpression-additivePrefixExpression" style="stroke: #A80036; stroke-width: 0.800000011920929;"/><polygon fill="none" points="1326.76,360.8496,1314.032,349.6584,1330.96,350.4672,1326.76,360.8496" style="stroke: #A80036; stroke-width: 0.800000011920929;"/><!--link LHSExpression to referencePrefixExpression--><path d="M2182.28,242.2824 C2152.448,263.6576 2112.112,292.5536 2086.168,311.1368 " fill="none" id="LHSExpression-referencePrefixExpression" style="stroke: #A80036; stroke-width: 0.800000011920929;"/><polygon fill="none" points="2179.096,237.6744,2195.368,232.9088,2185.616,246.7792,2179.096,237.6744" style="stroke: #A80036; stroke-width: 0.800000011920929;"/><!--link LHSExpression to variableExpression--><path d="M2221.2,249.0104 C2221.2,269.4224 2221.2,294.4416 2221.2,311.1368 " fill="none" id="LHSExpression-variableExpression" style="stroke: #A80036; stroke-width: 0.800000011920929;"/><polygon fill="none" points="2215.6,248.9088,2221.2,232.9088,2226.8,248.9088,2215.6,248.9088" style="stroke: #A80036; stroke-width: 0.800000011920929;"/><!--link LHSExpression to variablePointerExpression--><path d="M2259.928,242.2824 C2289.616,263.6576 2329.744,292.5536 2355.56,311.1368 " fill="none" id="LHSExpression-variablePointerExpression" style="stroke: #A80036; stroke-width: 0.800000011920929;"/><polygon fill="none" points="2256.616,246.8024,2246.904,232.9088,2263.16,237.7128,2256.616,246.8024" style="stroke: #A80036; stroke-width: 0.800000011920929;"/><!--link LHSExpression to dereferenceExpression--><path d="M2285.352,234.0976 C2335.688,249.8904 2407.344,273.1232 2469.2,296 C2481.776,300.6504 2495.288,306.0464 2507.624,311.136 " fill="none" id="LHSExpression-dereferenceExpression" style="stroke: #A80036; stroke-width: 0.800000011920929;"/><polygon fill="none" points="2283.4,239.3552,2269.8,229.2408,2286.744,228.664,2283.4,239.3552" style="stroke: #A80036; stroke-width: 0.800000011920929;"/><!--link postfixExpression to incrementPostfixExpression--><path d="M1621.512,360.9608 C1638.848,377.7609 1659.976,398.2282 1674.936,412.7246 " fill="none" id="postfixExpression-incrementPostfixExpression" style="stroke: #A80036; stroke-width: 0.800000011920929;"/><polygon fill="none" points="1617.56,364.9304,1609.968,349.7752,1625.36,356.8872,1617.56,364.9304" style="stroke: #A80036; stroke-width: 0.800000011920929;"/><!--link postfixExpression to decrementPostfixExpression--><path d="M1640.488,356.652 C1646.848,359.5592 1653.328,362.3528 1659.6,364.8 C1708.584,383.9244 1765.424,400.8057 1809.376,412.761 " fill="none" id="postfixExpression-decrementPostfixExpression" style="stroke: #A80036; stroke-width: 0.800000011920929;"/><polygon fill="none" points="1638.056,361.6976,1626.008,349.7728,1642.864,351.5816,1638.056,361.6976" style="stroke: #A80036; stroke-width: 0.800000011920929;"/><!--link binaryExpression to arithmeticBinaryExpression--><path d="M571.5088,233.4792 C492.8232,255.02 365.664,289.832 287.8952,311.1224 " fill="none" id="binaryExpression-arithmeticBinaryExpression" style="stroke: #A80036; stroke-width: 0.800000011920929;"/><polygon fill="none" points="570.1384,228.048,587.0496,229.2248,573.096,238.8504,570.1384,228.048" style="stroke: #A80036; stroke-width: 0.800000011920929;"/><!--link binaryExpression to logicalBinaryExpression--><path d="M607.8128,261.0776 C595.2456,278.6472 581.672,297.624 572.0024,311.1424 " fill="none" id="binaryExpression-logicalBinaryExpression" style="stroke: #A80036; stroke-width: 0.800000011920929;"/><polygon fill="none" points="603.2816,257.7856,617.1448,248.0304,612.3912,264.3016,603.2816,257.7856" style="stroke: #A80036; stroke-width: 0.800000011920929;"/><!--link binaryExpression to assignmentExpression--><path d="M674.4464,261.336 C686.84,278.8328 700.1968,297.6904 709.7256,311.1424 " fill="none" id="binaryExpression-assignmentExpression" style="stroke: #A80036; stroke-width: 0.800000011920929;"/><polygon fill="none" points="669.7,264.324,665.0216,248.0304,678.8392,257.8496,669.7,264.324" style="stroke: #A80036; stroke-width: 0.800000011920929;"/><!--link arithmeticBinaryExpression to additiveExpression--><path d="M177.292,358.5528 C150.1584,375.7694 115.8672,397.5279 91.9176,412.7246 " fill="none" id="arithmeticBinaryExpression-additiveExpression" style="stroke: #A80036; stroke-width: 0.800000011920929;"/><polygon fill="none" points="174.616,353.6184,191.1256,349.7752,180.6168,363.076,174.616,353.6184" style="stroke: #A80036; stroke-width: 0.800000011920929;"/><!--link arithmeticBinaryExpression to multiplicativeExpression--><path d="M220.4,365.9248 C220.4,381.6602 220.4,399.6289 220.4,412.7246 " fill="none" id="arithmeticBinaryExpression-multiplicativeExpression" style="stroke: #A80036; stroke-width: 0.800000011920929;"/><polygon fill="none" points="214.8,365.7752,220.4,349.7752,226,365.7752,214.8,365.7752" style="stroke: #A80036; stroke-width: 0.800000011920929;"/><!--link logicalBinaryExpression to logicalEqualityExpression--><path d="M514.2896,358.0784 C485.6584,375.3678 449.1928,397.3878 423.7952,412.7246 " fill="none" id="logicalBinaryExpression-logicalEqualityExpression" style="stroke: #A80036; stroke-width: 0.800000011920929;"/><polygon fill="none" points="511.4488,353.252,528.04,349.7752,517.2384,362.8392,511.4488,353.252" style="stroke: #A80036; stroke-width: 0.800000011920929;"/><!--link logicalBinaryExpression to logicalAndExpression--><path d="M558.8,365.9248 C558.8,381.6602 558.8,399.6289 558.8,412.7246 " fill="none" id="logicalBinaryExpression-logicalAndExpression" style="stroke: #A80036; stroke-width: 0.800000011920929;"/><polygon fill="none" points="553.2,365.7752,558.8,349.7752,564.4,365.7752,553.2,365.7752" style="stroke: #A80036; stroke-width: 0.800000011920929;"/><!--link logicalBinaryExpression to logicalOrExpression--><path d="M600.5176,358.7912 C626.492,375.9698 659.1936,397.5979 682.0648,412.7246 " fill="none" id="logicalBinaryExpression-logicalOrExpression" style="stroke: #A80036; stroke-width: 0.800000011920929;"/><polygon fill="none" points="597.1416,363.272,586.8856,349.7752,603.32,353.9304,597.1416,363.272" style="stroke: #A80036; stroke-width: 0.800000011920929;"/><!--link statement to declarationStatement--><path d="M3110.048,119.1656 C3186.552,128.8416 3331.088,149.3352 3451.6001,179.2 C3456.1121,180.3176 3460.7041,181.5368 3465.3281,182.828 " fill="none" id="statement-declarationStatement" style="stroke: #A80036; stroke-width: 0.800000011920929;"/><polygon fill="none" points="3109.304,124.7168,3094.112,117.184,3110.688,113.6024,3109.304,124.7168" style="stroke: #A80036; stroke-width: 0.800000011920929;"/><!--link statement to compoundStatement--><path d="M3109.52,126.576 C3156.2,139.0696 3225.76,158.632 3285.2,179.2 C3289.76,180.7792 3294.44,182.4688 3299.144,184.2184 " fill="none" id="statement-compoundStatement" style="stroke: #A80036; stroke-width: 0.800000011920929;"/><polygon fill="none" points="3108.048,131.9784,3094.016,122.4616,3110.92,121.1528,3108.048,131.9784" style="stroke: #A80036; stroke-width: 0.800000011920929;"/><!--link statement to expressionStatement--><path d="M3097.84,140.3552 C3120.8,155.6192 3149.056,174.4056 3171.04,189.0224 " fill="none" id="statement-expressionStatement" style="stroke: #A80036; stroke-width: 0.800000011920929;"/><polygon fill="none" points="3094.56,144.8968,3084.336,131.3752,3100.76,135.5704,3094.56,144.8968" style="stroke: #A80036; stroke-width: 0.800000011920929;"/><!--link statement to selectionStatement--><path d="M3002.936,128.1624 C2939.504,146.392 2834.04,176.6976 2768.016,195.6688 " fill="none" id="statement-selectionStatement" style="stroke: #A80036; stroke-width: 0.800000011920929;"/><polygon fill="none" points="3001.568,122.7288,3018.496,123.692,3004.664,133.4936,3001.568,122.7288" style="stroke: #A80036; stroke-width: 0.800000011920929;"/><!--link statement to iterationStatement--><path d="M3056.4,147.5248 C3056.4,163.26 3056.4,181.2288 3056.4,194.3248 " fill="none" id="statement-iterationStatement" style="stroke: #A80036; stroke-width: 0.800000011920929;"/><polygon fill="none" points="3050.8,147.3752,3056.4,131.3752,3062,147.3752,3050.8,147.3752" style="stroke: #A80036; stroke-width: 0.800000011920929;"/><!--link statement to jumpStatement--><path d="M3017.776,140.8696 C2994.248,157.9696 2964.84,179.3384 2944.224,194.3248 " fill="none" id="statement-jumpStatement" style="stroke: #A80036; stroke-width: 0.800000011920929;"/><polygon fill="none" points="3014.608,136.2512,3030.84,131.3752,3021.192,145.3112,3014.608,136.2512" style="stroke: #A80036; stroke-width: 0.800000011920929;"/><!--link jumpStatement to returnStatement--><path d="M2899.432,246.8272 C2888.208,265.6272 2874.32,288.88 2864.128,305.9488 " fill="none" id="jumpStatement-returnStatement" style="stroke: #A80036; stroke-width: 0.800000011920929;"/><polygon fill="none" points="2894.736,243.7744,2907.744,232.9088,2904.352,249.5168,2894.736,243.7744" style="stroke: #A80036; stroke-width: 0.800000011920929;"/><!--link jumpStatement to breakStatement--><path d="M2938.416,246.8744 C2950.976,267.6512 2966.8,293.8544 2977.248,311.1368 " fill="none" id="jumpStatement-breakStatement" style="stroke: #A80036; stroke-width: 0.800000011920929;"/><polygon fill="none" points="2933.464,249.4992,2929.984,232.9088,2943.048,243.708,2933.464,249.4992" style="stroke: #A80036; stroke-width: 0.800000011920929;"/><!--link jumpStatement to continueStatement--><path d="M2966.656,240.704 C3005.8,262.2168 3060.16,292.092 3094.808,311.1368 " fill="none" id="jumpStatement-continueStatement" style="stroke: #A80036; stroke-width: 0.800000011920929;"/><polygon fill="none" points="2963.8,245.5232,2952.472,232.9088,2969.192,235.708,2963.8,245.5232" style="stroke: #A80036; stroke-width: 0.800000011920929;"/><!--link iterationStatement to whileStatement--><path d="M3105.792,240.4536 C3139.832,258.4064 3185.072,282.2712 3220.184,300.7904 " fill="none" id="iterationStatement-whileStatement" style="stroke: #A80036; stroke-width: 0.800000011920929;"/><polygon fill="none" points="3103.032,245.3272,3091.488,232.9088,3108.256,235.4208,3103.032,245.3272" style="stroke: #A80036; stroke-width: 0.800000011920929;"/><!--link selectionStatement to ifStatement--><path d="M2707.44,248.9064 C2707.032,263.748 2706.552,281.0408 2706.136,295.8024 " fill="none" id="selectionStatement-ifStatement" style="stroke: #A80036; stroke-width: 0.800000011920929;"/><polygon fill="none" points="2701.84,248.7472,2707.888,232.9088,2713.04,249.0584,2701.84,248.7472" style="stroke: #A80036; stroke-width: 0.800000011920929;"/><!--
@startuml
skinparam svgLinkTarget _parent

interface node
interface expression
interface binaryExpression
interface unaryExpression
interface arithmeticBinaryExpression
interface logicalBinaryExpression
interface prefixExpression
interface postfixExpression
interface statement
interface selectionStatement
interface literalExpression
interface jumpStatement
interface iterationStatement
interface LHSExpression

interface binaryExpression {
  expression left
  expression right
  String operator
}

interface literalExpression {
  Object value
}

class expressionStatement {
  expression expression
}

class compoundStatement {
  List<statement> statements
  SymbolTable scope
}

class whileStatement {
  expression condition
  statement consequence
}

class declarationStatement {
  List<declarationSpecifier> specifiers
  declarator declarator
  initializer initializer
}

class returnStatement {
  expression returnValue
}

class ifStatement{
  expression condition
  statement consequence
  statement alternative
}

class stringLiteral{
  String value
}

class intLiteral{
  int value
}

class floatLiteral{
  double value
}

node <|- - expression
node <|- - statement

expression <|- - binaryExpression
expression <|- - unaryExpression
expression <|- - literalExpression
expression <|- - LHSExpression

literalExpression <|- - intLiteral
literalExpression <|- - floatLiteral
literalExpression <|- - stringLiteral

unaryExpression <|- - prefixExpression
unaryExpression <|- - postfixExpression

prefixExpression <|- - castExpression
prefixExpression <|- - incrementPrefixExpression
prefixExpression <|- - decrementPrefixExpression
prefixExpression <|- - addressOfExpression
prefixExpression <|- - additivePrefixExpression

LHSExpression <|- - referencePrefixExpression
LHSExpression <|- - variableExpression
LHSExpression <|- - variablePointerExpression
LHSExpression <|- - dereferenceExpression


postfixExpression <|- - incrementPostfixExpression
postfixExpression <|- - decrementPostfixExpression

binaryExpression <|- - arithmeticBinaryExpression
binaryExpression <|- - logicalBinaryExpression
binaryExpression <|- - assignmentExpression

arithmeticBinaryExpression <|- - additiveExpression
arithmeticBinaryExpression <|- - multiplicativeExpression

logicalBinaryExpression <|- - logicalEqualityExpression
logicalBinaryExpression <|- - logicalAndExpression
logicalBinaryExpression <|- - logicalOrExpression

statement <|- - declarationStatement
statement <|- - compoundStatement
statement <|- - expressionStatement
statement <|- - selectionStatement
statement <|- - iterationStatement
statement <|- - jumpStatement

jumpStatement <|- - returnStatement
jumpStatement <|- - breakStatement
jumpStatement <|- - continueStatement

iterationStatement <|- - whileStatement

selectionStatement <|- - ifStatement

@enduml

PlantUML version 1.2018.01(Sun Jan 28 19:08:22 CET 2018)
(GPL source distribution)
Java Runtime: OpenJDK Runtime Environment
JVM: OpenJDK 64-Bit Server VM
Java Version: 1.8.0_152-release-1136-b20
Operating System: Linux
OS Version: 4.13.0-38-generic
Default Encoding: UTF-8
Language: en
Country: US
--></g></svg>